<svg width="277" height="170" viewBox="0 0 277 170" fill="none" xmlns="http://www.w3.org/2000/svg">
<path fill-rule="evenodd" clip-rule="evenodd" d="M245.919 53.3643H193.692C197.369 42.4707 207.671 34.6273 219.805 34.6273C231.939 34.6273 242.242 42.4707 245.919 53.3643Z" fill="white"/>
<rect x="193.904" y="55.5686" width="51.8024" height="2.20436" fill="white"/>
<rect x="193.904" y="71.5502" width="51.8024" height="2.20436" fill="white"/>
<rect x="193.904" y="58.8752" width="51.8024" height="11.0218" rx="5.51089" fill="white"/>
<path d="M193.904 75.4078H245.706V79.5088C245.706 81.8093 243.841 83.6742 241.541 83.6742H198.069C195.769 83.6742 193.904 81.8093 193.904 79.5088V75.4078Z" fill="white"/>
<path d="M239.455 60.3703L225.647 66.4038L211.778 60.5122L239.455 60.3703Z" fill="#100F0F" stroke="white" stroke-width="0.694236"/>
<path d="M79.3761 85.5983C78.9022 85.5983 78.3394 85.1836 77.6877 84.3542C77.0953 83.5249 76.5621 81.9253 76.0882 79.5557C76.029 79.2595 75.9697 78.9337 75.9105 78.5782C75.9105 78.2228 75.9105 77.8377 75.9105 77.423C75.9105 75.0533 76.3252 72.2394 77.1546 68.9811C78.0432 65.7228 79.1688 62.3757 80.5313 58.9397C81.8939 55.4444 83.286 52.1861 84.7078 49.1648C86.1889 46.0843 87.5514 43.5665 88.7955 41.6115C89.6841 40.1898 90.9578 39.2419 92.6166 38.768C94.2753 38.294 95.8452 38.0571 97.3263 38.0571C94.7196 37.4054 92.0538 36.8722 89.3287 36.4575C86.6628 36.0429 83.9673 35.8355 81.2422 35.8355C77.6877 35.8355 74.1332 36.3094 70.5788 37.2573C67.0243 38.1459 63.5883 39.7751 60.2707 42.1447C59.5598 42.6187 59.2044 43.1222 59.2044 43.6554C59.2044 44.1293 59.4117 44.6032 59.8264 45.0772C60.2411 45.4919 60.4485 45.8769 60.4485 46.2324C60.4485 46.5286 60.1819 46.7952 59.6487 47.0321C58.9378 47.3283 58.3454 47.4764 57.8715 47.4764C56.6274 47.4764 55.5611 47.0025 54.6724 46.0547C53.843 45.1068 53.1025 44.0997 52.4509 43.0333C51.74 41.7893 51.3845 40.6044 51.3845 39.4789C51.3845 37.9978 51.9177 36.6945 52.984 35.5689C54.0504 34.3841 55.4426 33.377 57.1606 32.5476C58.8786 31.7182 60.6854 31.0666 62.5812 30.5926C64.5361 30.0595 66.343 29.6744 68.0018 29.4374C69.542 29.2005 71.0527 29.0524 72.5337 28.9931C74.0148 28.8746 75.4958 28.8154 76.9768 28.8154C81.8346 28.8154 86.4555 29.2301 90.8393 30.0595C95.2824 30.8888 99.3997 31.9256 103.191 33.1696C107.042 34.3545 110.507 35.5393 113.588 36.7241C116.669 37.909 119.305 38.8864 121.497 39.6566C123.689 40.4267 125.347 40.7525 126.473 40.6341C127.362 40.6341 127.984 40.4267 128.339 40.012C128.754 39.5381 129.05 39.1234 129.228 38.768C129.465 38.3533 129.761 38.2348 130.116 38.4125C130.827 38.8272 131.183 39.2123 131.183 39.5677C131.183 39.9824 130.887 40.3971 130.294 40.8118C129.761 41.1672 129.257 41.4931 128.783 41.7893C127.065 42.9149 124.814 43.4777 122.03 43.4777C119.305 43.4777 116.135 43.0333 112.522 42.1447C108.967 41.2561 105.146 40.249 101.058 39.1234L100.97 39.8343C99.0739 42.2632 97.0893 45.0476 95.0158 48.1873C93.0016 51.2679 91.0763 54.5262 89.2398 57.9622C87.4033 61.3982 85.7742 64.8046 84.3524 68.1813C82.9306 71.4989 81.8346 74.609 81.0645 77.5119C80.2944 80.4147 80.0278 82.8732 80.2647 84.8874C80.2647 85.3614 79.9685 85.5983 79.3761 85.5983ZM127.178 47.3876C126.585 47.3876 126.141 47.3283 125.845 47.2099C125.549 47.0321 125.252 46.8248 124.956 46.5878C124.601 46.2324 124.186 45.8177 123.712 45.3438C123.238 44.8106 123.001 44.3663 123.001 44.0108C123.001 43.7146 123.179 43.5369 123.534 43.4777C126.615 42.5298 128.925 42.0559 130.466 42.0559C131.413 42.0559 132.124 42.204 132.598 42.5002C133.131 42.7371 133.576 43.0926 133.931 43.5665C134.05 43.6258 134.257 43.922 134.553 44.4551C134.849 44.9291 134.998 45.2253 134.998 45.3438C134.998 45.7584 134.494 46.025 133.487 46.1435C132.48 46.262 131.65 46.3805 130.999 46.499C130.347 46.7359 129.695 46.9433 129.044 47.121C128.451 47.2987 127.829 47.3876 127.178 47.3876ZM125.578 79.1114C125.223 79.1114 124.808 78.7856 124.334 78.1339C123.86 77.4822 123.386 76.7713 122.912 76.0012C121.727 73.9278 120.75 71.7951 119.98 69.6031C119.21 67.4112 118.825 65.3081 118.825 63.2939C118.825 61.4574 119.18 59.7394 119.891 58.1399C120.602 56.5404 121.727 55.1778 123.268 54.0522C124.156 53.3414 125.43 52.9859 127.089 52.9859C128.096 52.9859 128.985 53.1932 129.755 53.6079C130.525 53.9634 130.91 54.6447 130.91 55.6518C130.91 56.5996 130.495 57.8437 129.666 59.384C128.896 60.9243 128.185 62.583 127.533 64.3603C127.178 65.4858 126.881 66.7892 126.645 68.2702C126.467 69.7512 126.408 71.4396 126.467 73.3353C126.467 73.75 126.467 74.1351 126.467 74.4905C126.526 74.7868 126.556 75.083 126.556 75.3792C126.556 76.7417 126.467 77.7192 126.289 78.3116C126.111 78.8448 125.874 79.1114 125.578 79.1114ZM147.083 82.3104C146.609 82.3104 146.016 82.1031 145.306 81.6884C144.595 81.3329 143.765 80.5036 142.817 79.2002C142.047 78.1339 141.455 76.6529 141.04 74.7571C140.685 72.8614 140.507 70.9657 140.507 69.07C140.507 66.5818 140.655 64.5084 140.951 62.8496C141.248 61.1908 141.455 60.1245 141.573 59.6506C140.685 58.8212 139.944 58.2288 139.352 57.8733C138.759 57.5179 138.463 57.1032 138.463 56.6293C138.463 55.7999 139.026 55.1482 140.152 54.6743C141.336 54.1411 142.64 53.8153 144.062 53.6968C144.595 52.4527 145.069 51.1198 145.483 49.698C145.898 48.217 146.313 46.8248 146.727 45.5215C147.142 44.1589 147.586 43.0926 148.06 42.3224C148.89 40.9599 150.163 40.0417 151.881 39.5677C153.659 39.0938 155.347 38.8568 156.947 38.8568C158.546 38.8568 159.82 39.0345 160.768 39.39C161.775 39.6862 162.012 40.0417 161.478 40.4563C160.531 41.108 159.494 42.2336 158.368 43.8331C157.243 45.3734 156.147 47.0618 155.08 48.8982C154.014 50.7347 153.037 52.4231 152.148 53.9634H163.878C166.01 53.9634 167.077 54.1411 167.077 54.4966C167.077 55.089 165.773 55.4444 163.167 55.5629C159.79 55.6221 157.302 55.711 155.702 55.8295C154.162 55.948 153.066 56.0665 152.415 56.1849C151.585 56.3627 150.963 56.6293 150.548 56.9847C150.134 57.3401 149.778 57.9326 149.482 58.7619C148.475 61.3093 147.646 63.9752 146.994 66.7595C146.402 69.4846 146.105 71.9728 146.105 74.224C146.105 75.942 146.283 77.423 146.639 78.6671C147.053 79.8519 147.646 80.6517 148.416 81.0663C148.593 81.1256 148.682 81.2441 148.682 81.4218C148.682 81.5995 148.534 81.7772 148.238 81.955C147.942 82.1919 147.557 82.3104 147.083 82.3104ZM173.258 47.3876C172.665 47.3876 172.221 47.3283 171.925 47.2099C171.628 47.0321 171.332 46.8248 171.036 46.5878C170.681 46.2324 170.266 45.8177 169.792 45.3438C169.318 44.8106 169.081 44.3663 169.081 44.0108C169.081 43.7146 169.259 43.5369 169.614 43.4777C172.695 42.5298 175.005 42.0559 176.545 42.0559C177.493 42.0559 178.204 42.204 178.678 42.5002C179.211 42.7371 179.656 43.0926 180.011 43.5665C180.13 43.6258 180.337 43.922 180.633 44.4551C180.929 44.9291 181.077 45.2253 181.077 45.3438C181.077 45.7584 180.574 46.025 179.567 46.1435C178.56 46.262 177.73 46.3805 177.079 46.499C176.427 46.7359 175.775 46.9433 175.124 47.121C174.531 47.2987 173.909 47.3876 173.258 47.3876ZM171.658 79.1114C171.303 79.1114 170.888 78.7856 170.414 78.1339C169.94 77.4822 169.466 76.7713 168.992 76.0012C167.807 73.9278 166.83 71.7951 166.06 69.6031C165.29 67.4112 164.905 65.3081 164.905 63.2939C164.905 61.4574 165.26 59.7394 165.971 58.1399C166.682 56.5404 167.807 55.1778 169.348 54.0522C170.236 53.3414 171.51 52.9859 173.169 52.9859C174.176 52.9859 175.064 53.1932 175.835 53.6079C176.605 53.9634 176.99 54.6447 176.99 55.6518C176.99 56.5996 176.575 57.8437 175.746 59.384C174.976 60.9243 174.265 62.583 173.613 64.3603C173.258 65.4858 172.961 66.7892 172.724 68.2702C172.547 69.7512 172.487 71.4396 172.547 73.3353C172.547 73.75 172.547 74.1351 172.547 74.4905C172.606 74.7868 172.636 75.083 172.636 75.3792C172.636 76.7417 172.547 77.7192 172.369 78.3116C172.191 78.8448 171.954 79.1114 171.658 79.1114Z" fill="white"/>
<path d="M24.4371 123.909C21.0011 123.909 18.3648 123.702 16.5284 123.287C14.7511 122.872 13.8625 122.517 13.8625 122.221C13.8625 121.865 14.6326 121.687 16.1729 121.687C16.5876 121.687 17.0023 121.687 17.417 121.687C17.8909 121.747 18.4241 121.806 19.0165 121.865C19.6682 121.924 20.2606 121.954 20.7937 121.954C21.3862 122.013 21.949 122.043 22.4821 122.043C26.0959 122.043 29.2653 121.51 31.9904 120.443C34.7747 119.436 37.1148 118.133 39.0105 116.533C40.9062 114.934 42.2688 113.305 43.0981 111.646C44.1053 109.691 44.6088 107.914 44.6088 106.314C44.6088 104.359 43.9571 102.789 42.6538 101.605C41.3505 100.42 39.6621 99.5904 37.5887 99.1165C35.5745 98.5833 33.4418 98.3167 31.1906 98.3167C31.0129 98.3167 30.4797 98.3464 29.5911 98.4056C28.7025 98.4648 27.7546 98.4945 26.7475 98.4945C25.4442 98.4945 24.526 98.4056 23.9928 98.2279C22.9857 97.8724 22.4821 97.5762 22.4821 97.3392C22.4821 96.8061 25.5034 96.5395 31.5461 96.5395C35.9299 96.5395 39.6621 95.8286 42.7427 94.4068C45.8825 92.9258 48.4595 91.1781 50.4737 89.1639C52.5472 87.1497 54.1171 85.3429 55.1834 83.7433C55.8943 82.677 56.2497 81.6403 56.2497 80.6332C56.2497 78.8559 55.3315 77.2268 53.495 75.7457C51.6585 74.2055 49.1704 72.991 46.0306 72.1024C42.95 71.1545 39.4844 70.6806 35.6337 70.6806C32.3162 70.6806 28.821 71.0953 25.148 71.9247C21.5343 72.6948 17.9798 74.0277 14.4845 75.9235C13.7736 76.2789 13.0331 76.4566 12.263 76.4566C11.3744 76.4566 10.93 76.2493 10.93 75.8346C10.93 75.3607 11.789 74.6202 13.507 73.6131C17.18 71.6581 20.8826 70.2659 24.6148 69.4365C28.4063 68.5479 32.1089 68.1036 35.7226 68.1036C39.5733 68.1036 43.2166 68.5183 46.6526 69.3477C50.0886 70.1771 53.1099 71.3026 55.7166 72.7244C58.3824 74.087 60.4559 75.6273 61.9369 77.3453C63.418 79.0633 64.1585 80.7813 64.1585 82.4993C64.1585 83.5656 63.8623 84.5727 63.2699 85.5206C62.4405 86.8831 60.9002 88.3642 58.649 89.9637C56.4571 91.5632 53.6431 93.0442 50.2071 94.4068C46.7711 95.7694 42.8019 96.8357 38.2996 97.6058C40.9062 98.139 43.4832 98.9091 46.0306 99.9163C48.578 100.923 50.6811 102.197 52.3398 103.737C53.9986 105.218 54.828 107.025 54.828 109.158C54.828 110.402 54.4429 111.765 53.6727 113.246C52.8434 114.845 51.5104 116.267 49.6739 117.511C47.8375 118.755 45.6751 119.821 43.187 120.71C40.7581 121.658 38.1811 122.369 35.456 122.843C32.7901 123.376 30.2131 123.702 27.725 123.82C27.1326 123.879 26.5402 123.909 25.9478 123.909C25.4146 123.909 24.911 123.909 24.4371 123.909ZM6.75352 125.775C6.27959 125.775 5.7168 125.36 5.06514 124.531C4.41349 123.761 3.85069 122.221 3.37676 119.91C3.31752 119.555 3.25828 119.199 3.19904 118.844C3.19904 118.429 3.19904 118.015 3.19904 117.6C3.19904 115.586 3.46562 113.216 3.9988 110.491C4.59121 107.707 5.36135 104.804 6.30921 101.782C7.25708 98.7018 8.2938 95.6805 9.41939 92.7184C10.545 89.7563 11.7002 87.0312 12.885 84.5431C14.0698 82.055 15.1658 80.0407 16.1729 78.5005C17.0023 77.1379 18.1871 76.2197 19.7274 75.7457C21.3269 75.2126 22.8376 74.946 24.2594 74.946C25.6219 74.946 26.7475 75.1237 27.6361 75.4792C28.5248 75.8346 28.7617 76.2493 28.347 76.7232C26.3921 79.1521 24.3779 82.055 22.3044 85.4317C20.231 88.7492 18.276 92.3037 16.4395 96.0952C14.603 99.8274 12.9739 103.53 11.5521 107.203C10.1303 110.876 9.06394 114.253 8.35304 117.333C7.64215 120.414 7.40518 122.961 7.64215 124.975C7.64215 125.509 7.34594 125.775 6.75352 125.775ZM68.1399 120.799C66.7181 120.799 65.5037 120.236 64.4966 119.11C63.5487 117.985 63.0748 116.504 63.0748 114.667C63.0748 112.89 63.371 110.906 63.9634 108.714C64.5558 106.462 65.2371 104.3 66.0072 102.227C66.7774 100.094 67.429 98.2871 67.9622 96.8061C68.2584 95.9767 69.147 95.2954 70.6281 94.7622C72.1683 94.2291 73.5901 93.9625 74.8934 93.9625C75.6636 93.9625 76.2856 94.0514 76.7595 94.2291C77.2927 94.4068 77.5593 94.7326 77.5593 95.2066C77.5593 95.325 77.5001 95.5028 77.3816 95.7397C77.3223 95.9767 77.1446 96.3618 76.8484 96.8949C74.8934 100.153 73.5013 103.056 72.6719 105.603C71.9017 108.092 71.5167 110.165 71.5167 111.824C71.5167 113.305 71.7536 114.49 72.2276 115.378C72.7607 116.208 73.3235 116.622 73.916 116.622C74.5676 116.622 75.5155 116.178 76.7595 115.289C78.0036 114.401 79.4254 113.246 81.0249 111.824C82.6244 110.402 84.2536 108.891 85.9123 107.292C87.6303 105.692 89.2595 104.152 90.7998 102.671C92.3993 101.19 93.7915 99.9459 94.9763 98.9388C95.9834 98.1094 96.9016 97.6947 97.731 97.6947C98.5604 97.6947 99.212 97.9909 99.686 98.5833C100.16 99.1165 100.308 99.5608 100.13 99.9163C99.1824 101.693 98.3234 103.708 97.5533 105.959C96.7831 108.21 96.3981 110.284 96.3981 112.179C96.3981 113.601 96.6943 114.845 97.2867 115.911C97.8791 116.919 98.9751 117.659 100.575 118.133C101.167 118.251 101.552 118.459 101.73 118.755C101.967 118.992 102.085 119.199 102.085 119.377C102.085 119.792 101.73 119.999 101.019 119.999C100.604 119.999 100.041 119.91 99.3305 119.733C98.2049 119.377 97.1682 118.992 96.2204 118.577C95.2725 118.163 94.4431 117.57 93.7322 116.8C93.1398 116.148 92.6362 115.289 92.2216 114.223C91.8069 113.157 91.5995 111.942 91.5995 110.58C91.5995 109.513 91.955 108.299 92.6659 106.936C93.3768 105.515 93.9099 104.448 94.2654 103.737C94.4431 103.382 94.532 103.145 94.532 103.026C94.532 102.908 94.295 103.056 93.8211 103.471C92.6362 104.596 91.481 105.811 90.3555 107.114C89.2299 108.358 87.8081 109.78 86.0901 111.379C84.4313 112.92 82.1801 114.727 79.3365 116.8C77.8555 117.866 76.0486 118.814 73.916 119.644C71.7833 120.414 69.8579 120.799 68.1399 120.799ZM107.382 117.955C106.316 117.955 105.812 117.57 105.872 116.8C106.168 115.319 106.405 113.512 106.583 111.379C106.819 109.188 106.938 107.084 106.938 105.07C106.938 103.056 106.76 101.338 106.405 99.9163C106.109 98.4352 105.516 97.6947 104.628 97.6947C103.324 97.6355 102.673 97.3689 102.673 96.8949C102.673 96.5395 102.998 96.2137 103.65 95.9175C104.539 95.4435 105.546 95.0288 106.671 94.6734C107.797 94.3179 108.923 94.1402 110.048 94.1402C110.7 94.1402 111.351 94.2291 112.003 94.4068C112.655 94.5253 113.277 94.7622 113.869 95.1177C114.58 95.5324 115.024 96.1544 115.202 96.9838C115.439 97.8132 115.587 98.5537 115.646 99.2054C115.765 99.9163 115.824 100.272 115.824 100.272C115.943 100.272 116.061 100.124 116.18 99.8274C116.357 99.5312 116.505 99.2942 116.624 99.1165C117.868 97.2208 119.408 95.3547 121.245 93.5182C123.14 91.6225 125.125 90.0526 127.199 88.8085C129.272 87.5052 131.138 86.8535 132.797 86.8535C134.633 86.8535 135.996 87.4459 136.885 88.6308C137.773 89.8156 138.217 90.9412 138.217 92.0075C138.217 93.3701 137.595 94.0513 136.351 94.0513C135.403 94.0513 134.722 93.8144 134.308 93.3405C133.952 92.8073 133.567 92.3037 133.152 91.8298C132.797 91.3559 132.175 91.1189 131.286 91.1189C129.746 91.1189 128.176 91.7113 126.576 92.8961C124.977 94.0217 123.614 95.2658 122.489 96.6284C120.652 98.8203 119.112 101.427 117.868 104.448C116.683 107.41 115.883 110.313 115.469 113.157C115.35 113.986 114.787 114.786 113.78 115.556C112.832 116.267 111.737 116.859 110.492 117.333C109.308 117.748 108.271 117.955 107.382 117.955ZM151.688 139.371C149.259 139.371 147.096 138.927 145.201 138.038C143.305 137.209 141.824 136.142 140.758 134.839C139.691 133.536 139.158 132.232 139.158 130.929C139.158 129.27 140.076 127.908 141.913 126.841C142.209 126.664 142.476 126.96 142.713 127.73C143.009 128.5 143.424 129.418 143.957 130.485C144.549 131.61 145.467 132.588 146.711 133.417C147.955 134.306 149.703 134.75 151.954 134.75C155.272 134.75 158.027 133.98 160.218 132.44C162.41 130.959 164.158 128.974 165.461 126.486C166.824 124.057 167.772 121.391 168.305 118.488C168.838 115.586 169.045 112.772 168.927 110.047C168.927 110.047 168.838 109.632 168.66 108.802C168.483 107.973 168.335 106.907 168.216 105.603C168.098 105.84 167.89 106.107 167.594 106.403C167.357 106.64 167.09 106.848 166.794 107.025C165.135 108.269 163.121 109.484 160.752 110.669C158.382 111.853 155.923 113.009 153.376 114.134C150.829 115.26 148.4 116.297 146.089 117.244C143.838 118.192 141.913 119.022 140.313 119.733C139.484 120.147 138.329 120.355 136.848 120.355C135.367 120.355 134.004 120.058 132.76 119.466C131.457 118.874 130.805 118.015 130.805 116.889C130.805 115.349 131.398 113.364 132.582 110.935C133.708 108.447 135.278 105.87 137.292 103.204C139.306 100.479 141.587 98.0205 144.134 95.8286C147.096 93.2812 149.851 91.4743 152.399 90.408C154.946 89.2824 157.701 88.7196 160.663 88.7196C161.137 88.7196 161.64 88.7492 162.173 88.8085C162.707 88.8085 163.24 88.8381 163.773 88.8973C164.839 88.8973 165.758 89.1047 166.528 89.5194C167.298 89.8748 167.979 90.2007 168.572 90.4969C168.512 89.4898 168.631 88.7196 168.927 88.1864C169.282 87.6533 169.549 87.3867 169.727 87.3867C171.089 87.3867 172.363 87.6533 173.548 88.1864C174.792 88.7196 175.799 89.3713 176.569 90.1414C177.398 90.9116 177.843 91.6817 177.902 92.4518C177.961 93.0442 177.991 93.6367 177.991 94.2291C178.05 94.7622 178.08 95.325 178.08 95.9175C178.08 99.6497 177.665 103.411 176.836 107.203C176.006 110.935 174.881 114.549 173.459 118.044C172.096 121.48 170.556 124.62 168.838 127.464C166.409 131.433 163.921 134.395 161.374 136.35C158.826 138.364 155.598 139.371 151.688 139.371ZM143.068 115.734C144.608 115.734 146.356 115.289 148.311 114.401C150.266 113.512 152.102 112.624 153.82 111.735C163.121 106.759 167.89 103.619 168.127 102.316C168.423 101.308 168.572 100.509 168.572 99.9163C168.572 99.2646 168.423 98.4352 168.127 97.4281C167.772 95.5324 166.439 94.5845 164.128 94.5845C163.003 94.5845 161.581 94.8807 159.863 95.4731C158.145 96.0063 156.16 96.9246 153.909 98.2279C151.184 99.7681 148.726 101.457 146.534 103.293C144.401 105.07 142.713 106.818 141.469 108.536C140.284 110.195 139.691 111.616 139.691 112.801C139.691 113.749 140.017 114.49 140.669 115.023C141.32 115.497 142.12 115.734 143.068 115.734ZM198.649 122.31C196.28 122.31 194.058 121.865 191.985 120.977C189.911 120.147 188.223 118.814 186.919 116.978C185.853 115.438 185.113 113.956 184.698 112.535C184.283 111.054 184.076 109.661 184.076 108.358C184.076 107.114 184.224 105.989 184.52 104.981C184.816 103.915 185.172 103.056 185.587 102.404C186.831 100.272 188.134 98.4945 189.496 97.0727C190.918 95.6509 192.459 94.3772 194.117 93.2516C196.309 91.8298 199.005 91.1189 202.204 91.1189C203.389 91.1189 204.633 91.5928 205.936 92.5407C207.239 93.4886 209.135 94.466 211.623 95.4731C213.282 96.1248 214.822 96.8949 216.244 97.7836C217.725 98.6129 218.91 99.4719 219.798 100.361C220.746 101.19 221.22 101.99 221.22 102.76C221.22 103.589 220.539 104.27 219.176 104.804C217.221 105.455 214.911 106.048 212.245 106.581C209.579 107.055 206.913 107.44 204.248 107.736C201.641 108.032 199.331 108.18 197.316 108.18C195.776 108.18 194.591 108.092 193.762 107.914C193.406 109.217 193.229 110.58 193.229 112.002C193.229 113.186 193.406 114.371 193.762 115.556C194.117 116.741 194.71 117.837 195.539 118.844C196.131 119.496 196.783 119.969 197.494 120.266C198.264 120.503 199.034 120.621 199.804 120.621C201.108 120.621 202.381 120.414 203.626 119.999C204.929 119.525 206.054 119.051 207.002 118.577C207.95 118.044 208.543 117.689 208.78 117.511C209.964 116.8 210.853 116.267 211.445 115.911C212.097 115.556 212.719 115.378 213.312 115.378C214.378 115.378 214.911 115.615 214.911 116.089C214.911 116.385 214.615 116.83 214.022 117.422C213.43 117.955 212.393 118.577 210.912 119.288C209.017 120.236 207.002 120.977 204.87 121.51C202.796 122.043 200.723 122.31 198.649 122.31ZM199.36 105.248C201.256 105.248 203.477 105.159 206.025 104.981C208.572 104.744 211.327 104.359 214.289 103.826C215.948 103.471 216.777 102.967 216.777 102.316C216.777 101.782 216.392 101.22 215.622 100.627C214.911 99.9755 213.993 99.3831 212.867 98.8499C211.801 98.3167 210.735 97.8724 209.668 97.517C208.661 97.1023 207.891 96.8949 207.358 96.8949C204.81 96.8949 202.618 97.4281 200.782 98.4945C199.005 99.5608 197.464 100.953 196.161 102.671C195.746 103.204 195.302 103.974 194.828 104.981C195.835 105.159 197.346 105.248 199.36 105.248ZM225.316 117.955C224.249 117.955 223.746 117.57 223.805 116.8C224.101 115.319 224.338 113.512 224.516 111.379C224.753 109.188 224.871 107.084 224.871 105.07C224.871 103.056 224.694 101.338 224.338 99.9163C224.042 98.4352 223.449 97.6947 222.561 97.6947C221.258 97.6355 220.606 97.3689 220.606 96.8949C220.606 96.5395 220.932 96.2137 221.583 95.9175C222.472 95.4435 223.479 95.0288 224.605 94.6734C225.73 94.3179 226.856 94.1402 227.981 94.1402C228.633 94.1402 229.285 94.2291 229.936 94.4068C230.588 94.5253 231.21 94.7622 231.802 95.1177C232.513 95.5324 232.958 96.1544 233.135 96.9838C233.372 97.8132 233.52 98.5537 233.58 99.2054C233.698 99.9163 233.757 100.272 233.757 100.272C233.876 100.272 233.994 100.124 234.113 99.8274C234.291 99.5312 234.439 99.2942 234.557 99.1165C235.801 97.2208 237.342 95.3547 239.178 93.5182C241.074 91.6225 243.058 90.0526 245.132 88.8085C247.205 87.5052 249.071 86.8535 250.73 86.8535C252.567 86.8535 253.929 87.4459 254.818 88.6308C255.706 89.8156 256.151 90.9412 256.151 92.0075C256.151 93.3701 255.529 94.0513 254.285 94.0513C253.337 94.0513 252.655 93.8144 252.241 93.3405C251.885 92.8073 251.5 92.3037 251.086 91.8298C250.73 91.3559 250.108 91.1189 249.219 91.1189C247.679 91.1189 246.109 91.7113 244.51 92.8961C242.91 94.0217 241.548 95.2658 240.422 96.6284C238.586 98.8203 237.045 101.427 235.801 104.448C234.616 107.41 233.817 110.313 233.402 113.157C233.284 113.986 232.721 114.786 231.714 115.556C230.766 116.267 229.67 116.859 228.426 117.333C227.241 117.748 226.204 117.955 225.316 117.955Z" fill="white"/>
<path d="M35.3727 155.572V156.93H28.5997V144.992H30.2076V155.572H35.3727ZM36.1735 144.192C36.4068 144.586 36.565 145.003 36.6484 145.442C36.7317 145.88 36.74 146.314 36.6733 146.741C36.6067 147.169 36.4679 147.58 36.2568 147.974C36.0458 148.368 35.7653 148.718 35.4154 149.024L34.9655 148.732C34.8822 148.682 34.8433 148.618 34.8489 148.541C34.86 148.457 34.8878 148.391 34.9322 148.341C35.0766 148.163 35.1988 147.949 35.2988 147.699C35.4043 147.444 35.4709 147.172 35.4987 146.883C35.532 146.588 35.5181 146.286 35.457 145.975C35.4015 145.664 35.2877 145.364 35.1155 145.075C35.0433 144.958 35.0211 144.856 35.0488 144.767C35.0822 144.672 35.1516 144.603 35.2571 144.559L36.1735 144.192ZM44.2954 152.498L42.421 147.641C42.3654 147.497 42.3071 147.33 42.246 147.141C42.1849 146.947 42.1266 146.741 42.0711 146.525C41.9544 146.974 41.835 147.349 41.7128 147.649L39.8384 152.498H44.2954ZM47.6611 156.93H46.4114C46.267 156.93 46.1504 156.894 46.0615 156.822C45.9727 156.749 45.906 156.658 45.8616 156.547L44.7453 153.664H39.3885L38.2722 156.547C38.2389 156.647 38.175 156.735 38.0806 156.813C37.9862 156.891 37.8696 156.93 37.7307 156.93H36.4811L41.2547 144.992H42.8875L47.6611 156.93ZM53.5619 155.647C54.0562 155.647 54.4977 155.564 54.8865 155.397C55.2753 155.23 55.6029 154.997 55.8695 154.697C56.1417 154.397 56.3472 154.039 56.486 153.622C56.6304 153.206 56.7026 152.748 56.7026 152.248V144.992H58.3105V152.248C58.3105 152.937 58.1994 153.575 57.9772 154.164C57.7606 154.753 57.4468 155.264 57.0358 155.697C56.6304 156.124 56.1333 156.461 55.5446 156.705C54.9559 156.949 54.295 157.071 53.5619 157.071C52.8288 157.071 52.1679 156.949 51.5792 156.705C50.9904 156.461 50.4906 156.124 50.0796 155.697C49.6686 155.264 49.352 154.753 49.1299 154.164C48.9133 153.575 48.805 152.937 48.805 152.248V144.992H50.4128V152.24C50.4128 152.739 50.4823 153.198 50.6211 153.614C50.7655 154.031 50.971 154.389 51.2376 154.689C51.5097 154.989 51.8402 155.225 52.229 155.397C52.6233 155.564 53.0676 155.647 53.5619 155.647ZM69.2797 146.35H65.4142V156.93H63.8063V146.35H59.9325V144.992H69.2797V146.35ZM80.7232 144.992V156.93H79.1071V151.498H72.6673V156.93H71.0512V144.992H72.6673V150.315H79.1071V144.992H80.7232ZM91.1396 155.614L91.1313 156.93H83.7752V144.992H91.1313V146.308H85.3914V150.273H90.04V151.54H85.3914V155.614H91.1396ZM103.064 144.992V156.93H102.255C102.128 156.93 102.019 156.908 101.931 156.863C101.847 156.819 101.764 156.744 101.681 156.638L94.7744 147.641C94.7855 147.78 94.7938 147.916 94.7993 148.049C94.8049 148.182 94.8077 148.307 94.8077 148.424V156.93H93.3914V144.992H94.2245C94.2967 144.992 94.3578 144.997 94.4078 145.008C94.4578 145.014 94.5022 145.028 94.5411 145.05C94.58 145.067 94.6188 145.094 94.6577 145.133C94.6966 145.167 94.7383 145.211 94.7827 145.267L101.689 154.256C101.678 154.111 101.667 153.972 101.656 153.839C101.65 153.7 101.647 153.57 101.647 153.448V144.992H103.064ZM114.188 146.35H110.323V156.93H108.715V146.35H104.841V144.992H114.188V146.35ZM117.576 156.93H115.96V144.992H117.576V156.93ZM121.546 150.965C121.546 151.698 121.646 152.356 121.846 152.939C122.046 153.517 122.329 154.008 122.695 154.414C123.067 154.814 123.515 155.122 124.037 155.339C124.559 155.55 125.139 155.655 125.778 155.655C126.422 155.655 127.005 155.55 127.527 155.339C128.049 155.122 128.494 154.814 128.86 154.414C129.227 154.008 129.51 153.517 129.71 152.939C129.91 152.356 130.01 151.698 130.01 150.965C130.01 150.232 129.91 149.574 129.71 148.991C129.51 148.407 129.227 147.916 128.86 147.516C128.494 147.111 128.049 146.8 127.527 146.583C127.005 146.366 126.422 146.258 125.778 146.258C125.139 146.258 124.559 146.366 124.037 146.583C123.515 146.8 123.067 147.111 122.695 147.516C122.329 147.916 122.046 148.407 121.846 148.991C121.646 149.574 121.546 150.232 121.546 150.965ZM132.218 159.396H130.885C130.685 159.396 130.507 159.368 130.351 159.312C130.196 159.257 130.054 159.16 129.927 159.021L127.836 156.738C127.202 156.949 126.516 157.055 125.778 157.055C124.9 157.055 124.101 156.908 123.379 156.613C122.657 156.313 122.037 155.894 121.521 155.355C121.004 154.817 120.604 154.175 120.321 153.431C120.038 152.681 119.896 151.859 119.896 150.965C119.896 150.071 120.038 149.252 120.321 148.507C120.604 147.758 121.004 147.113 121.521 146.575C122.037 146.03 122.657 145.608 123.379 145.308C124.101 145.008 124.9 144.858 125.778 144.858C126.655 144.858 127.455 145.008 128.177 145.308C128.905 145.608 129.527 146.03 130.043 146.575C130.56 147.113 130.96 147.758 131.243 148.507C131.526 149.252 131.668 150.071 131.668 150.965C131.668 151.526 131.609 152.059 131.493 152.564C131.382 153.07 131.218 153.542 131.001 153.981C130.785 154.414 130.521 154.808 130.21 155.164C129.899 155.519 129.549 155.827 129.16 156.088L132.218 159.396ZM138.579 155.647C139.073 155.647 139.514 155.564 139.903 155.397C140.292 155.23 140.62 154.997 140.886 154.697C141.158 154.397 141.364 154.039 141.503 153.622C141.647 153.206 141.719 152.748 141.719 152.248V144.992H143.327V152.248C143.327 152.937 143.216 153.575 142.994 154.164C142.777 154.753 142.464 155.264 142.053 155.697C141.647 156.124 141.15 156.461 140.561 156.705C139.973 156.949 139.312 157.071 138.579 157.071C137.846 157.071 137.185 156.949 136.596 156.705C136.007 156.461 135.507 156.124 135.096 155.697C134.685 155.264 134.369 154.753 134.147 154.164C133.93 153.575 133.822 152.937 133.822 152.248V144.992H135.43V152.24C135.43 152.739 135.499 153.198 135.638 153.614C135.782 154.031 135.988 154.389 136.254 154.689C136.526 154.989 136.857 155.225 137.246 155.397C137.64 155.564 138.084 155.647 138.579 155.647ZM153.588 155.614L153.58 156.93H146.224V144.992H153.58V146.308H147.84V150.273H152.489V151.54H147.84V155.614H153.588ZM164.294 155.647C164.755 155.647 165.152 155.594 165.485 155.489C165.818 155.383 166.09 155.236 166.301 155.047C166.518 154.853 166.676 154.625 166.776 154.364C166.876 154.097 166.926 153.806 166.926 153.489C166.926 152.873 166.707 152.387 166.268 152.031C165.829 151.67 165.171 151.49 164.294 151.49H161.711V155.647H164.294ZM161.711 146.266V150.34H163.844C164.299 150.34 164.693 150.29 165.027 150.19C165.365 150.09 165.643 149.951 165.86 149.774C166.082 149.596 166.246 149.382 166.351 149.132C166.457 148.877 166.51 148.599 166.51 148.299C166.51 147.594 166.298 147.08 165.876 146.758C165.454 146.43 164.799 146.266 163.91 146.266H161.711ZM163.91 144.992C164.643 144.992 165.274 145.064 165.801 145.208C166.335 145.353 166.771 145.558 167.109 145.825C167.454 146.091 167.706 146.419 167.867 146.808C168.029 147.191 168.109 147.624 168.109 148.107C168.109 148.402 168.062 148.685 167.967 148.957C167.879 149.224 167.743 149.474 167.559 149.707C167.376 149.94 167.143 150.151 166.859 150.34C166.582 150.523 166.254 150.673 165.876 150.79C166.754 150.957 167.412 151.27 167.851 151.731C168.295 152.187 168.517 152.787 168.517 153.531C168.517 154.036 168.423 154.497 168.234 154.914C168.051 155.33 167.779 155.689 167.418 155.988C167.062 156.288 166.623 156.522 166.101 156.688C165.579 156.849 164.985 156.93 164.319 156.93H160.103V144.992H163.91ZM175.482 155.647C175.976 155.647 176.417 155.564 176.806 155.397C177.195 155.23 177.523 154.997 177.789 154.697C178.061 154.397 178.267 154.039 178.406 153.622C178.55 153.206 178.622 152.748 178.622 152.248V144.992H180.23V152.248C180.23 152.937 180.119 153.575 179.897 154.164C179.68 154.753 179.367 155.264 178.956 155.697C178.55 156.124 178.053 156.461 177.464 156.705C176.876 156.949 176.215 157.071 175.482 157.071C174.748 157.071 174.088 156.949 173.499 156.705C172.91 156.461 172.41 156.124 171.999 155.697C171.588 155.264 171.272 154.753 171.05 154.164C170.833 153.575 170.725 152.937 170.725 152.248V144.992H172.333V152.24C172.333 152.739 172.402 153.198 172.541 153.614C172.685 154.031 172.891 154.389 173.157 154.689C173.429 154.989 173.76 155.225 174.149 155.397C174.543 155.564 174.987 155.647 175.482 155.647ZM186.434 150.773C186.901 150.773 187.312 150.718 187.667 150.607C188.028 150.49 188.328 150.329 188.567 150.124C188.811 149.912 188.994 149.663 189.117 149.374C189.239 149.085 189.3 148.766 189.3 148.416C189.3 147.705 189.067 147.169 188.6 146.808C188.134 146.447 187.434 146.266 186.501 146.266H184.735V150.773H186.434ZM191.949 156.93H190.516C190.222 156.93 190.005 156.816 189.866 156.588L186.767 152.323C186.673 152.19 186.57 152.095 186.459 152.04C186.354 151.979 186.187 151.948 185.959 151.948H184.735V156.93H183.127V144.992H186.501C187.256 144.992 187.909 145.069 188.459 145.225C189.008 145.375 189.461 145.594 189.816 145.883C190.177 146.172 190.444 146.522 190.616 146.933C190.788 147.338 190.874 147.794 190.874 148.299C190.874 148.721 190.808 149.115 190.675 149.482C190.541 149.849 190.347 150.179 190.091 150.473C189.841 150.762 189.533 151.009 189.167 151.215C188.806 151.42 188.395 151.576 187.934 151.681C188.139 151.798 188.317 151.967 188.467 152.19L191.949 156.93ZM203.156 151.19V155.772C202.556 156.205 201.915 156.53 201.232 156.747C200.554 156.958 199.81 157.063 198.999 157.063C198.038 157.063 197.172 156.916 196.4 156.622C195.628 156.322 194.967 155.905 194.417 155.372C193.873 154.833 193.453 154.189 193.159 153.439C192.865 152.689 192.718 151.865 192.718 150.965C192.718 150.054 192.859 149.224 193.142 148.474C193.431 147.724 193.839 147.083 194.367 146.55C194.895 146.011 195.536 145.594 196.291 145.3C197.047 145.006 197.891 144.858 198.824 144.858C199.296 144.858 199.735 144.895 200.14 144.967C200.546 145.033 200.921 145.133 201.265 145.267C201.609 145.394 201.929 145.553 202.223 145.742C202.517 145.925 202.792 146.133 203.048 146.366L202.59 147.099C202.517 147.211 202.423 147.283 202.306 147.316C202.195 147.344 202.07 147.316 201.931 147.233C201.798 147.155 201.645 147.061 201.473 146.949C201.301 146.838 201.09 146.733 200.84 146.633C200.596 146.527 200.304 146.439 199.965 146.366C199.632 146.294 199.235 146.258 198.774 146.258C198.102 146.258 197.494 146.369 196.95 146.591C196.405 146.808 195.942 147.122 195.558 147.533C195.175 147.938 194.881 148.432 194.675 149.016C194.47 149.593 194.367 150.243 194.367 150.965C194.367 151.715 194.473 152.387 194.684 152.981C194.9 153.57 195.206 154.072 195.6 154.489C196 154.9 196.483 155.214 197.05 155.43C197.616 155.647 198.252 155.755 198.957 155.755C199.513 155.755 200.004 155.694 200.432 155.572C200.865 155.444 201.287 155.269 201.698 155.047V152.423H199.84C199.735 152.423 199.649 152.392 199.582 152.331C199.521 152.27 199.491 152.195 199.491 152.106V151.19H203.156ZM212.994 155.614L212.986 156.93H205.63V144.992H212.986V146.308H207.246V150.273H211.895V151.54H207.246V155.614H212.994ZM218.553 150.773C219.02 150.773 219.431 150.718 219.786 150.607C220.147 150.49 220.447 150.329 220.686 150.124C220.93 149.912 221.114 149.663 221.236 149.374C221.358 149.085 221.419 148.766 221.419 148.416C221.419 147.705 221.186 147.169 220.719 146.808C220.253 146.447 219.553 146.266 218.62 146.266H216.854V150.773H218.553ZM224.068 156.93H222.635C222.341 156.93 222.125 156.816 221.986 156.588L218.887 152.323C218.792 152.19 218.689 152.095 218.578 152.04C218.473 151.979 218.306 151.948 218.079 151.948H216.854V156.93H215.246V144.992H218.62C219.375 144.992 220.028 145.069 220.578 145.225C221.128 145.375 221.58 145.594 221.936 145.883C222.297 146.172 222.563 146.522 222.735 146.933C222.908 147.338 222.994 147.794 222.994 148.299C222.994 148.721 222.927 149.115 222.794 149.482C222.66 149.849 222.466 150.179 222.211 150.473C221.961 150.762 221.652 151.009 221.286 151.215C220.925 151.42 220.514 151.576 220.053 151.681C220.258 151.798 220.436 151.967 220.586 152.19L224.068 156.93Z" fill="white"/>
</svg>
