<svg width="221" height="136" viewBox="0 0 221 136" fill="none" xmlns="http://www.w3.org/2000/svg">
<path fill-rule="evenodd" clip-rule="evenodd" d="M154.534 42.5758H196.202C193.269 33.8846 185.049 27.6268 175.368 27.6268C165.687 27.6268 157.467 33.8846 154.534 42.5758Z" fill="#100F0F"/>
<rect x="154.703" y="44.3345" width="41.3297" height="1.75871" fill="#100F0F"/>
<rect x="154.703" y="57.0852" width="41.3297" height="1.75871" fill="#100F0F"/>
<rect x="154.703" y="46.9727" width="41.3297" height="8.79356" rx="4.39678" fill="#100F0F"/>
<path d="M154.703 60.163H196.033V63.4348C196.033 65.2702 194.545 66.7581 192.71 66.7581H158.027C156.191 66.7581 154.703 65.2702 154.703 63.4348V60.163Z" fill="#100F0F"/>
<path d="M191.045 48.1655L180.029 52.9792L168.964 48.2787L191.045 48.1655Z" fill="white" stroke="black" stroke-width="0.553885"/>
<path d="M63.329 68.4665C62.9509 68.4665 62.5019 68.1357 61.9819 67.474C61.5093 66.8123 61.0839 65.5361 60.7058 63.6455C60.6585 63.4092 60.6113 63.1492 60.564 62.8656C60.564 62.5821 60.564 62.2748 60.564 61.944C60.564 60.0534 60.8948 57.8083 61.5566 55.2087C62.2655 52.6092 63.1636 49.9387 64.2507 47.1974C65.3377 44.4087 66.4485 41.8092 67.5828 39.3987C68.7644 36.9409 69.8515 34.9321 70.8441 33.3724C71.5531 32.238 72.5693 31.4818 73.8927 31.1037C75.2161 30.7256 76.4686 30.5365 77.6502 30.5365C75.5706 30.0166 73.4437 29.5912 71.2695 29.2604C69.1426 28.9295 66.992 28.7641 64.8178 28.7641C61.9819 28.7641 59.146 29.1422 56.3102 29.8984C53.4743 30.6074 50.7329 31.9072 48.0861 33.7978C47.5189 34.1759 47.2353 34.5776 47.2353 35.003C47.2353 35.3811 47.4007 35.7593 47.7316 36.1374C48.0624 36.4682 48.2279 36.7755 48.2279 37.059C48.2279 37.2954 48.0152 37.5081 47.5898 37.6971C47.0226 37.9334 46.55 38.0516 46.1719 38.0516C45.1793 38.0516 44.3285 37.6735 43.6196 36.9173C42.9578 36.161 42.367 35.3575 41.8471 34.5067C41.2799 33.5142 40.9964 32.5689 40.9964 31.6709C40.9964 30.4892 41.4217 29.4494 42.2725 28.5514C43.1233 27.6061 44.234 26.8026 45.6047 26.1409C46.9754 25.4792 48.4169 24.9593 49.9294 24.5811C51.4891 24.1558 52.9307 23.8485 54.2541 23.6595C55.483 23.4704 56.6883 23.3522 57.8699 23.305C59.0515 23.2105 60.2331 23.1632 61.4148 23.1632C65.2905 23.1632 68.9771 23.494 72.4747 24.1557C76.0196 24.8175 79.3045 25.6446 82.3294 26.6372C85.4017 27.5824 88.1667 28.5277 90.6244 29.473C93.0822 30.4183 95.1855 31.1982 96.9343 31.8127C98.6831 32.4271 100.006 32.6871 100.905 32.5925C101.613 32.5925 102.11 32.4271 102.393 32.0962C102.724 31.7181 102.961 31.3873 103.102 31.1037C103.291 30.7728 103.528 30.6783 103.811 30.8201C104.378 31.1509 104.662 31.4582 104.662 31.7418C104.662 32.0726 104.426 32.4035 103.953 32.7343C103.528 33.0179 103.126 33.2779 102.748 33.5142C101.377 34.4122 99.5811 34.8612 97.3597 34.8612C95.1855 34.8612 92.6568 34.5067 89.7737 33.7978C86.9378 33.0888 83.8892 32.2853 80.6279 31.3873L80.557 31.9544C79.0445 33.8923 77.4612 36.1138 75.8069 38.6188C74.1999 41.0766 72.6638 43.6761 71.1986 46.4175C69.7334 49.1588 68.4336 51.8766 67.2992 54.5707C66.1649 57.2175 65.2905 59.6989 64.676 62.0149C64.0616 64.3309 63.8489 66.2923 64.038 67.8993C64.038 68.2775 63.8016 68.4665 63.329 68.4665ZM101.467 37.9807C100.994 37.9807 100.64 37.9334 100.403 37.8389C100.167 37.6971 99.9306 37.5317 99.6943 37.3426C99.4107 37.059 99.0798 36.7282 98.7017 36.3501C98.3236 35.9247 98.1345 35.5702 98.1345 35.2866C98.1345 35.0503 98.2763 34.9085 98.5599 34.8612C101.018 34.105 102.861 33.7269 104.09 33.7269C104.846 33.7269 105.413 33.845 105.791 34.0814C106.217 34.2704 106.571 34.554 106.855 34.9321C106.949 34.9794 107.115 35.2157 107.351 35.6411C107.588 36.0192 107.706 36.2555 107.706 36.3501C107.706 36.6809 107.304 36.8936 106.5 36.9882C105.697 37.0827 105.035 37.1772 104.515 37.2717C103.995 37.4608 103.475 37.6262 102.956 37.768C102.483 37.9098 101.987 37.9807 101.467 37.9807ZM100.191 63.291C99.907 63.291 99.5761 63.0311 99.198 62.5112C98.8199 61.9912 98.4418 61.4241 98.0636 60.8096C97.1184 59.1554 96.3385 57.4538 95.724 55.705C95.1096 53.9562 94.8024 52.2783 94.8024 50.6713C94.8024 49.2061 95.086 47.8354 95.6531 46.5593C96.2203 45.2831 97.1184 44.196 98.3472 43.298C99.0562 42.7308 100.072 42.4472 101.396 42.4472C102.199 42.4472 102.908 42.6127 103.523 42.9435C104.137 43.2271 104.444 43.7707 104.444 44.5742C104.444 45.3304 104.114 46.323 103.452 47.5518C102.837 48.7807 102.27 50.1041 101.75 51.5221C101.467 52.4201 101.23 53.4599 101.041 54.6416C100.9 55.8232 100.852 57.1702 100.9 58.6827C100.9 59.0136 100.9 59.3208 100.9 59.6044C100.947 59.8407 100.97 60.077 100.97 60.3133C100.97 61.4004 100.9 62.1803 100.758 62.653C100.616 63.0783 100.427 63.291 100.191 63.291ZM117.348 65.8433C116.97 65.8433 116.497 65.6779 115.93 65.347C115.363 65.0635 114.701 64.4018 113.945 63.3619C113.33 62.5112 112.858 61.3295 112.527 59.8171C112.243 58.3046 112.101 56.7921 112.101 55.2796C112.101 53.2945 112.219 51.6402 112.456 50.3168C112.692 48.9934 112.858 48.1426 112.952 47.7645C112.243 47.1028 111.652 46.6302 111.18 46.3466C110.707 46.063 110.471 45.7321 110.471 45.354C110.471 44.6923 110.92 44.1724 111.818 43.7943C112.763 43.3689 113.803 43.1089 114.937 43.0144C115.363 42.0219 115.741 40.9584 116.072 39.824C116.402 38.6424 116.733 37.5317 117.064 36.4919C117.395 35.4048 117.749 34.554 118.128 33.9396C118.789 32.8525 119.805 32.1199 121.176 31.7418C122.594 31.3636 123.941 31.1746 125.217 31.1746C126.493 31.1746 127.51 31.3164 128.266 31.6C129.069 31.8363 129.258 32.1199 128.833 32.4507C128.077 32.9706 127.25 33.8687 126.352 35.1448C125.454 36.3737 124.579 37.7208 123.728 39.186C122.878 40.6512 122.098 41.9982 121.389 43.2271H130.747C132.449 43.2271 133.3 43.3689 133.3 43.6525C133.3 44.1251 132.26 44.4087 130.18 44.5033C127.486 44.5505 125.501 44.6214 124.225 44.7159C122.996 44.8105 122.121 44.905 121.602 44.9995C120.94 45.1413 120.444 45.354 120.113 45.6376C119.782 45.9212 119.498 46.3939 119.262 47.0556C118.458 49.0879 117.797 51.2149 117.277 53.4363C116.804 55.6105 116.568 57.5956 116.568 59.3917C116.568 60.7624 116.71 61.944 116.993 62.9365C117.324 63.8818 117.797 64.5199 118.411 64.8508C118.553 64.898 118.624 64.9926 118.624 65.1344C118.624 65.2762 118.506 65.4179 118.269 65.5597C118.033 65.7488 117.726 65.8433 117.348 65.8433ZM138.231 37.9807C137.758 37.9807 137.404 37.9334 137.167 37.8389C136.931 37.6971 136.695 37.5317 136.458 37.3426C136.175 37.059 135.844 36.7282 135.466 36.3501C135.088 35.9247 134.899 35.5702 134.899 35.2866C134.899 35.0503 135.04 34.9085 135.324 34.8612C137.782 34.105 139.625 33.7269 140.854 33.7269C141.61 33.7269 142.177 33.845 142.556 34.0814C142.981 34.2704 143.335 34.554 143.619 34.9321C143.714 34.9794 143.879 35.2157 144.115 35.6411C144.352 36.0192 144.47 36.2555 144.47 36.3501C144.47 36.6809 144.068 36.8936 143.265 36.9882C142.461 37.0827 141.799 37.1772 141.279 37.2717C140.759 37.4608 140.24 37.6262 139.72 37.768C139.247 37.9098 138.751 37.9807 138.231 37.9807ZM136.955 63.291C136.671 63.291 136.34 63.0311 135.962 62.5112C135.584 61.9912 135.206 61.4241 134.828 60.8096C133.882 59.1554 133.103 57.4538 132.488 55.705C131.874 53.9562 131.566 52.2783 131.566 50.6713C131.566 49.2061 131.85 47.8354 132.417 46.5593C132.984 45.2831 133.882 44.196 135.111 43.298C135.82 42.7308 136.836 42.4472 138.16 42.4472C138.963 42.4472 139.672 42.6127 140.287 42.9435C140.901 43.2271 141.208 43.7707 141.208 44.5742C141.208 45.3304 140.878 46.323 140.216 47.5518C139.601 48.7807 139.034 50.1041 138.514 51.5221C138.231 52.4201 137.994 53.4599 137.805 54.6416C137.664 55.8232 137.616 57.1702 137.664 58.6827C137.664 59.0136 137.664 59.3208 137.664 59.6044C137.711 59.8407 137.735 60.077 137.735 60.3133C137.735 61.4004 137.664 62.1803 137.522 62.653C137.38 63.0783 137.191 63.291 136.955 63.291Z" fill="black"/>
<path d="M19.4967 99.0321C16.7554 99.0321 14.6521 98.8667 13.1869 98.5358C11.7689 98.205 11.06 97.9214 11.06 97.685C11.06 97.4015 11.6744 97.2597 12.9033 97.2597C13.2342 97.2597 13.565 97.2597 13.8959 97.2597C14.274 97.3069 14.6994 97.3542 15.172 97.4015C15.6919 97.4487 16.1646 97.4724 16.59 97.4724C17.0626 97.5196 17.5116 97.5433 17.937 97.5433C20.8202 97.5433 23.3488 97.1179 25.523 96.2671C27.7445 95.4636 29.6114 94.4238 31.1239 93.1476C32.6364 91.8715 33.7235 90.5717 34.3852 89.2483C35.1887 87.6885 35.5904 86.2706 35.5904 84.9944C35.5904 83.4347 35.0705 82.1822 34.0307 81.2369C32.9909 80.2916 31.6438 79.6299 29.9895 79.2518C28.3825 78.8264 26.681 78.6137 24.8849 78.6137C24.7431 78.6137 24.3178 78.6373 23.6088 78.6846C22.8998 78.7318 22.1436 78.7555 21.3401 78.7555C20.3002 78.7555 19.5676 78.6846 19.1423 78.5428C18.3388 78.2592 17.937 78.0229 17.937 77.8338C17.937 77.4084 20.3475 77.1957 25.1685 77.1957C28.6661 77.1957 31.6438 76.6286 34.1016 75.4942C36.6066 74.3126 38.6626 72.9183 40.2696 71.3113C41.9239 69.7043 43.1764 68.2627 44.0272 66.9865C44.5944 66.1358 44.878 65.3086 44.878 64.5051C44.878 63.0872 44.1454 61.7874 42.6801 60.6058C41.2149 59.3769 39.2298 58.408 36.7248 57.699C34.267 56.9428 31.502 56.5646 28.4298 56.5646C25.783 56.5646 22.9943 56.8955 20.0639 57.5572C17.1808 58.1716 14.3449 59.2351 11.5563 60.7476C10.9891 61.0312 10.3983 61.173 9.78382 61.173C9.07485 61.173 8.72036 61.0075 8.72036 60.6767C8.72036 60.2986 9.4057 59.7078 10.7764 58.9043C13.7068 57.3445 16.6609 56.2338 19.6385 55.5721C22.6635 54.8631 25.6175 54.5086 28.5007 54.5086C31.5729 54.5086 34.4797 54.8395 37.2211 55.5012C39.9624 56.1629 42.3729 57.0609 44.4526 58.1953C46.5795 59.2824 48.2338 60.5113 49.4154 61.8819C50.597 63.2526 51.1878 64.6233 51.1878 65.994C51.1878 66.8447 50.9515 67.6482 50.4788 68.4045C49.8171 69.4916 48.5882 70.6732 46.7922 71.9493C45.0434 73.2255 42.7983 74.4071 40.0569 75.4942C37.3156 76.5813 34.1488 77.4321 30.5567 78.0465C32.6364 78.4719 34.6924 79.0863 36.7248 79.8898C38.7572 80.6933 40.4351 81.7095 41.7585 82.9384C43.0819 84.12 43.7436 85.5616 43.7436 87.2632C43.7436 88.2557 43.4364 89.3428 42.8219 90.5244C42.1602 91.8006 41.0968 92.9349 39.6316 93.9275C38.1663 94.9201 36.4412 95.7708 34.4561 96.4798C32.5182 97.236 30.4622 97.8032 28.288 98.1813C26.1611 98.6067 24.1051 98.8667 22.1199 98.9612C21.6473 99.0085 21.1746 99.0321 20.702 99.0321C20.2766 99.0321 19.8749 99.0321 19.4967 99.0321ZM5.38819 100.521C5.01007 100.521 4.56106 100.19 4.04114 99.5284C3.52123 98.9139 3.07221 97.685 2.6941 95.8417C2.64683 95.5581 2.59957 95.2745 2.5523 94.9909C2.5523 94.6601 2.5523 94.3292 2.5523 93.9984C2.5523 92.3914 2.76499 90.5008 3.19038 88.3266C3.66302 86.1052 4.27747 83.7892 5.0337 81.3787C5.78994 78.9209 6.61708 76.5104 7.51511 74.1472C8.41314 71.7839 9.3348 69.6097 10.2801 67.6246C11.2254 65.6395 12.0998 64.0325 12.9033 62.8036C13.565 61.7165 14.5103 60.9839 15.7392 60.6058C17.0153 60.1804 18.2206 59.9677 19.3549 59.9677C20.442 59.9677 21.3401 60.1095 22.049 60.3931C22.758 60.6767 22.9471 61.0075 22.6162 61.3857C21.0565 63.3235 19.4495 65.6395 17.7952 68.3336C16.1409 70.9804 14.5812 73.8163 13.116 76.8413C11.6508 79.8189 10.351 82.773 9.21664 85.7034C8.08229 88.6338 7.23152 91.3279 6.66434 93.7857C6.09716 96.2435 5.9081 98.2759 6.09716 99.8829C6.09716 100.308 5.86084 100.521 5.38819 100.521ZM54.3643 96.5507C53.23 96.5507 52.2611 96.1017 51.4575 95.2036C50.7013 94.3056 50.3232 93.124 50.3232 91.6588C50.3232 90.2408 50.5595 88.6575 51.0322 86.9087C51.5048 85.1126 52.0484 83.3874 52.6628 81.7332C53.2772 80.0316 53.7972 78.5901 54.2225 77.4084C54.4589 76.7467 55.1678 76.2032 56.3495 75.7778C57.5783 75.3524 58.7127 75.1397 59.7525 75.1397C60.367 75.1397 60.8632 75.2106 61.2414 75.3524C61.6668 75.4942 61.8794 75.7542 61.8794 76.1323C61.8794 76.2268 61.8322 76.3686 61.7376 76.5577C61.6904 76.7467 61.5486 77.0539 61.3123 77.4793C59.7525 80.0789 58.6418 82.3949 57.9801 84.4273C57.3657 86.4124 57.0584 88.0667 57.0584 89.3901C57.0584 90.5717 57.2475 91.517 57.6256 92.226C58.051 92.8877 58.5 93.2185 58.9727 93.2185C59.4926 93.2185 60.2488 92.864 61.2414 92.1551C62.2339 91.4461 63.3683 90.5244 64.6444 89.3901C65.9206 88.2557 67.2204 87.0505 68.5438 85.7743C69.9145 84.4982 71.2142 83.2693 72.4431 82.0877C73.7193 80.906 74.83 79.9135 75.7753 79.11C76.5788 78.4483 77.3114 78.1174 77.9731 78.1174C78.6348 78.1174 79.1547 78.3537 79.5329 78.8264C79.911 79.2518 80.0291 79.6062 79.8873 79.8898C79.1311 81.3078 78.4458 82.9148 77.8313 84.7108C77.2169 86.5069 76.9097 88.1612 76.9097 89.6737C76.9097 90.808 77.146 91.8006 77.6186 92.6513C78.0913 93.4548 78.9657 94.0457 80.2418 94.4238C80.7145 94.5183 81.0217 94.6837 81.1635 94.9201C81.3526 95.1091 81.4471 95.2745 81.4471 95.4163C81.4471 95.7472 81.1635 95.9126 80.5963 95.9126C80.2655 95.9126 79.8164 95.8417 79.2493 95.6999C78.3512 95.4163 77.5241 95.1091 76.7679 94.7783C76.0116 94.4474 75.3499 93.9748 74.7827 93.3603C74.3101 92.8404 73.9083 92.1551 73.5775 91.3043C73.2466 90.4535 73.0812 89.4846 73.0812 88.3975C73.0812 87.5467 73.3648 86.5778 73.932 85.4907C74.4992 84.3564 74.9245 83.5056 75.2081 82.9384C75.3499 82.6548 75.4208 82.4658 75.4208 82.3712C75.4208 82.2767 75.2318 82.3949 74.8536 82.7257C73.9083 83.6238 72.9867 84.5927 72.0886 85.6325C71.1906 86.6251 70.0563 87.7594 68.6856 89.0356C67.3622 90.2645 65.5661 91.706 63.2974 93.3603C62.1158 94.2111 60.6742 94.9673 58.9727 95.629C57.2711 96.2435 55.735 96.5507 54.3643 96.5507ZM85.6732 94.282C84.8225 94.282 84.4207 93.9748 84.468 93.3603C84.7043 92.1787 84.8933 90.7371 85.0351 89.0356C85.2242 87.2868 85.3187 85.6089 85.3187 84.0019C85.3187 82.3949 85.1769 81.0242 84.8933 79.8898C84.657 78.7082 84.1844 78.1174 83.4754 78.1174C82.4356 78.0701 81.9157 77.8574 81.9157 77.4793C81.9157 77.1957 82.1756 76.9358 82.6955 76.6995C83.4045 76.3213 84.208 75.9905 85.106 75.7069C86.0041 75.4233 86.9021 75.2815 87.8001 75.2815C88.32 75.2815 88.84 75.3524 89.3599 75.4942C89.8798 75.5887 90.3761 75.7778 90.8487 76.0614C91.4159 76.3922 91.7704 76.8885 91.9122 77.5502C92.1012 78.2119 92.2194 78.8027 92.2667 79.3227C92.3612 79.8898 92.4085 80.1734 92.4085 80.1734C92.503 80.1734 92.5975 80.0553 92.692 79.8189C92.8338 79.5826 92.952 79.3936 93.0465 79.2518C94.0391 77.7393 95.268 76.2504 96.7332 74.7852C98.2457 73.2728 99.829 72.0202 101.483 71.0277C103.138 69.9879 104.626 69.4679 105.95 69.4679C107.415 69.4679 108.502 69.9406 109.211 70.8859C109.92 71.8312 110.275 72.7292 110.275 73.58C110.275 74.6671 109.778 75.2106 108.786 75.2106C108.029 75.2106 107.486 75.0216 107.155 74.6434C106.871 74.2181 106.564 73.8163 106.233 73.4382C105.95 73.0601 105.454 72.871 104.745 72.871C103.516 72.871 102.263 73.3437 100.987 74.289C99.7109 75.187 98.6238 76.1795 97.7257 77.2666C96.2605 79.0154 95.0317 81.0951 94.0391 83.5056C93.0938 85.8688 92.4557 88.1848 92.1249 90.4535C92.0303 91.1152 91.5813 91.7533 90.7778 92.3678C90.0216 92.9349 89.1472 93.4076 88.1546 93.7857C87.2093 94.1166 86.3822 94.282 85.6732 94.282ZM121.022 111.368C119.084 111.368 117.359 111.014 115.846 110.305C114.334 109.643 113.152 108.792 112.301 107.752C111.45 106.713 111.025 105.673 111.025 104.633C111.025 103.31 111.758 102.222 113.223 101.372C113.459 101.23 113.672 101.466 113.861 102.081C114.097 102.695 114.428 103.428 114.854 104.278C115.326 105.177 116.059 105.956 117.051 106.618C118.044 107.327 119.438 107.682 121.234 107.682C123.881 107.682 126.079 107.067 127.828 105.838C129.577 104.657 130.971 103.073 132.011 101.088C133.098 99.1503 133.854 97.0233 134.279 94.7074C134.705 92.3914 134.87 90.1463 134.776 87.9721C134.776 87.9721 134.705 87.6413 134.563 86.9796C134.421 86.3179 134.303 85.4671 134.208 84.4273C134.114 84.6163 133.949 84.829 133.712 85.0653C133.523 85.2544 133.31 85.4198 133.074 85.5616C131.751 86.5542 130.144 87.5231 128.253 88.4684C126.363 89.4137 124.401 90.3354 122.369 91.2334C120.336 92.1314 118.398 92.9586 116.555 93.7148C114.759 94.471 113.223 95.1327 111.947 95.6999C111.285 96.0308 110.363 96.1962 109.182 96.1962C108 96.1962 106.913 95.9599 105.92 95.4872C104.881 95.0146 104.361 94.3292 104.361 93.4312C104.361 92.2023 104.833 90.619 105.779 88.6811C106.677 86.696 107.929 84.64 109.536 82.513C111.143 80.3389 112.963 78.3774 114.995 76.6286C117.359 74.5962 119.556 73.1546 121.589 72.3038C123.621 71.4058 125.819 70.9568 128.182 70.9568C128.56 70.9568 128.962 70.9804 129.387 71.0277C129.813 71.0277 130.238 71.0513 130.664 71.0986C131.514 71.0986 132.247 71.264 132.861 71.5949C133.476 71.8784 134.019 72.1384 134.492 72.3747C134.445 71.5712 134.539 70.9568 134.776 70.5314C135.059 70.106 135.272 69.8933 135.414 69.8933C136.501 69.8933 137.517 70.106 138.462 70.5314C139.455 70.9568 140.258 71.4767 140.873 72.0911C141.535 72.7056 141.889 73.32 141.936 73.9345C141.984 74.4071 142.007 74.8798 142.007 75.3524C142.054 75.7778 142.078 76.2268 142.078 76.6995C142.078 79.6771 141.747 82.6785 141.086 85.7034C140.424 88.6811 139.526 91.5642 138.391 94.3529C137.304 97.0942 136.075 99.5993 134.705 101.868C132.767 105.035 130.782 107.398 128.749 108.958C126.717 110.565 124.141 111.368 121.022 111.368ZM114.145 92.5095C115.373 92.5095 116.768 92.1551 118.327 91.4461C119.887 90.7371 121.352 90.0281 122.723 89.3192C130.144 85.3489 133.949 82.8439 134.138 81.8041C134.374 81.0006 134.492 80.3625 134.492 79.8898C134.492 79.3699 134.374 78.7082 134.138 77.9047C133.854 76.3922 132.791 75.636 130.947 75.636C130.049 75.636 128.915 75.8723 127.544 76.345C126.173 76.7704 124.59 77.503 122.794 78.5428C120.62 79.7717 118.658 81.1187 116.91 82.5839C115.208 84.0019 113.861 85.3962 112.868 86.7669C111.923 88.0903 111.45 89.2246 111.45 90.1699C111.45 90.9262 111.71 91.517 112.23 91.9424C112.75 92.3205 113.388 92.5095 114.145 92.5095ZM158.489 97.7559C156.599 97.7559 154.826 97.4015 153.172 96.6925C151.518 96.0308 150.171 94.9673 149.131 93.5021C148.28 92.2732 147.689 91.0916 147.358 89.9572C147.027 88.7756 146.862 87.6649 146.862 86.6251C146.862 85.6325 146.98 84.7345 147.216 83.931C147.453 83.0802 147.736 82.3949 148.067 81.875C149.06 80.1734 150.1 78.7555 151.187 77.6211C152.321 76.4868 153.55 75.4706 154.873 74.5725C156.622 73.4382 158.773 72.871 161.325 72.871C162.27 72.871 163.263 73.2491 164.303 74.0054C165.343 74.7616 166.855 75.5415 168.84 76.345C170.164 76.8649 171.392 77.4793 172.527 78.1883C173.708 78.85 174.654 79.5354 175.363 80.2443C176.119 80.906 176.497 81.5441 176.497 82.1585C176.497 82.8203 175.953 83.3638 174.866 83.7892C173.307 84.3091 171.463 84.7817 169.336 85.2071C167.209 85.5852 165.083 85.8925 162.956 86.1288C160.876 86.3651 159.033 86.4833 157.426 86.4833C156.197 86.4833 155.251 86.4124 154.59 86.2706C154.306 87.3104 154.164 88.3975 154.164 89.5319C154.164 90.4772 154.306 91.4225 154.59 92.3678C154.873 93.313 155.346 94.1874 156.008 94.9909C156.48 95.5109 157 95.889 157.567 96.1253C158.182 96.3144 158.796 96.4089 159.411 96.4089C160.451 96.4089 161.467 96.2435 162.459 95.9126C163.499 95.5345 164.397 95.1564 165.153 94.7783C165.91 94.3529 166.382 94.0693 166.571 93.9275C167.517 93.3603 168.226 92.9349 168.698 92.6513C169.218 92.3678 169.715 92.226 170.187 92.226C171.038 92.226 171.463 92.415 171.463 92.7931C171.463 93.0295 171.227 93.3839 170.754 93.8566C170.282 94.282 169.455 94.7783 168.273 95.3454C166.76 96.1017 165.153 96.6925 163.452 97.1179C161.798 97.5433 160.143 97.7559 158.489 97.7559ZM159.056 84.1437C160.569 84.1437 162.341 84.0728 164.374 83.931C166.406 83.7419 168.604 83.4347 170.967 83.0093C172.29 82.7257 172.952 82.324 172.952 81.8041C172.952 81.3787 172.645 80.9297 172.03 80.457C171.463 79.9371 170.731 79.4645 169.833 79.0391C168.982 78.6137 168.131 78.2592 167.28 77.9756C166.477 77.6448 165.862 77.4793 165.437 77.4793C163.405 77.4793 161.656 77.9047 160.191 78.7555C158.773 79.6062 157.544 80.717 156.504 82.0877C156.173 82.513 155.819 83.1275 155.441 83.931C156.244 84.0728 157.449 84.1437 159.056 84.1437ZM179.764 94.282C178.914 94.282 178.512 93.9748 178.559 93.3603C178.795 92.1787 178.985 90.7371 179.126 89.0356C179.315 87.2868 179.41 85.6089 179.41 84.0019C179.41 82.3949 179.268 81.0242 178.985 79.8898C178.748 78.7082 178.276 78.1174 177.567 78.1174C176.527 78.0701 176.007 77.8574 176.007 77.4793C176.007 77.1957 176.267 76.9358 176.787 76.6995C177.496 76.3213 178.299 75.9905 179.197 75.7069C180.095 75.4233 180.993 75.2815 181.891 75.2815C182.411 75.2815 182.931 75.3524 183.451 75.4942C183.971 75.5887 184.467 75.7778 184.94 76.0614C185.507 76.3922 185.862 76.8885 186.003 77.5502C186.192 78.2119 186.311 78.8027 186.358 79.3227C186.452 79.8898 186.5 80.1734 186.5 80.1734C186.594 80.1734 186.689 80.0553 186.783 79.8189C186.925 79.5826 187.043 79.3936 187.138 79.2518C188.13 77.7393 189.359 76.2504 190.824 74.7852C192.337 73.2728 193.92 72.0202 195.574 71.0277C197.229 69.9879 198.718 69.4679 200.041 69.4679C201.506 69.4679 202.593 69.9406 203.302 70.8859C204.011 71.8312 204.366 72.7292 204.366 73.58C204.366 74.6671 203.869 75.2106 202.877 75.2106C202.121 75.2106 201.577 75.0216 201.246 74.6434C200.963 74.2181 200.655 73.8163 200.325 73.4382C200.041 73.0601 199.545 72.871 198.836 72.871C197.607 72.871 196.354 73.3437 195.078 74.289C193.802 75.187 192.715 76.1795 191.817 77.2666C190.352 79.0154 189.123 81.0951 188.13 83.5056C187.185 85.8688 186.547 88.1848 186.216 90.4535C186.122 91.1152 185.672 91.7533 184.869 92.3678C184.113 92.9349 183.238 93.4076 182.246 93.7857C181.3 94.1166 180.473 94.282 179.764 94.282Z" fill="#100F0F"/>
<path d="M28.2215 124.355V125.439H22.8178V115.914H24.1006V124.355H28.2215ZM28.8604 115.276C29.0465 115.591 29.1728 115.923 29.2393 116.273C29.3058 116.623 29.3124 116.969 29.2592 117.31C29.2061 117.651 29.0953 117.979 28.9269 118.293C28.7585 118.608 28.5348 118.887 28.2556 119.131L27.8967 118.898C27.8302 118.858 27.7992 118.807 27.8036 118.745C27.8125 118.679 27.8346 118.626 27.8701 118.586C27.9853 118.444 28.0828 118.274 28.1625 118.074C28.2467 117.87 28.2999 117.653 28.3221 117.423C28.3486 117.188 28.3376 116.946 28.2888 116.698C28.2445 116.45 28.1537 116.211 28.0163 115.98C27.9587 115.887 27.941 115.805 27.9631 115.735C27.9897 115.659 28.0451 115.604 28.1293 115.568L28.8604 115.276ZM35.3404 121.903L33.8449 118.028C33.8006 117.912 33.754 117.779 33.7053 117.629C33.6566 117.474 33.61 117.31 33.5657 117.137C33.4727 117.496 33.3774 117.795 33.2799 118.034L31.7844 121.903H35.3404ZM38.0256 125.439H37.0286C36.9134 125.439 36.8203 125.41 36.7495 125.352C36.6786 125.295 36.6254 125.221 36.5899 125.133L35.6993 122.833H31.4255L30.5349 125.133C30.5083 125.213 30.4573 125.284 30.382 125.346C30.3067 125.408 30.2136 125.439 30.1028 125.439H29.1058L32.9144 115.914H34.2171L38.0256 125.439ZM42.7335 124.415C43.1278 124.415 43.4801 124.349 43.7903 124.216C44.1005 124.083 44.3619 123.897 44.5746 123.657C44.7917 123.418 44.9557 123.132 45.0664 122.8C45.1817 122.468 45.2393 122.102 45.2393 121.703V115.914H46.5221V121.703C46.5221 122.253 46.4334 122.762 46.2562 123.232C46.0834 123.702 45.833 124.109 45.5051 124.455C45.1817 124.796 44.7851 125.064 44.3154 125.259C43.8457 125.454 43.3184 125.552 42.7335 125.552C42.1486 125.552 41.6213 125.454 41.1516 125.259C40.6819 125.064 40.2831 124.796 39.9552 124.455C39.6273 124.109 39.3747 123.702 39.1975 123.232C39.0247 122.762 38.9383 122.253 38.9383 121.703V115.914H40.2211V121.697C40.2211 122.095 40.2765 122.461 40.3872 122.793C40.5024 123.126 40.6664 123.411 40.8791 123.651C41.0962 123.89 41.3598 124.078 41.67 124.216C41.9846 124.349 42.3391 124.415 42.7335 124.415ZM55.2737 116.997H52.1896V125.439H50.9068V116.997H47.8162V115.914H55.2737V116.997ZM64.4037 115.914V125.439H63.1143V121.105H57.9765V125.439H56.687V115.914H57.9765V120.161H63.1143V115.914H64.4037ZM72.7143 124.388L72.7076 125.439H66.8387V115.914H72.7076V116.964H68.1281V120.128H71.8369V121.138H68.1281V124.388H72.7143ZM82.2276 115.914V125.439H81.5828C81.4809 125.439 81.3945 125.421 81.3236 125.385C81.2572 125.35 81.1907 125.29 81.1242 125.206L75.6142 118.028C75.623 118.138 75.6297 118.247 75.6341 118.353C75.6386 118.46 75.6408 118.559 75.6408 118.652V125.439H74.5108V115.914H75.1755C75.2331 115.914 75.2819 115.918 75.3217 115.927C75.3616 115.932 75.3971 115.943 75.4281 115.961C75.4591 115.974 75.4901 115.996 75.5211 116.027C75.5522 116.054 75.5854 116.089 75.6208 116.133L81.1309 123.305C81.122 123.19 81.1132 123.079 81.1043 122.973C81.0999 122.862 81.0976 122.758 81.0976 122.66V115.914H82.2276ZM91.1031 116.997H88.0191V125.439H86.7363V116.997H83.6456V115.914H91.1031V116.997ZM93.8059 125.439H92.5164V115.914H93.8059V125.439ZM96.9733 120.68C96.9733 121.265 97.0531 121.79 97.2126 122.255C97.3721 122.716 97.5981 123.108 97.8905 123.431C98.1874 123.75 98.5441 123.996 98.9606 124.169C99.3772 124.337 99.8402 124.422 100.35 124.422C100.864 124.422 101.329 124.337 101.746 124.169C102.162 123.996 102.517 123.75 102.809 123.431C103.101 123.108 103.327 122.716 103.487 122.255C103.647 121.79 103.726 121.265 103.726 120.68C103.726 120.095 103.647 119.57 103.487 119.104C103.327 118.639 103.101 118.247 102.809 117.928C102.517 117.604 102.162 117.356 101.746 117.184C101.329 117.011 100.864 116.924 100.35 116.924C99.8402 116.924 99.3772 117.011 98.9606 117.184C98.5441 117.356 98.1874 117.604 97.8905 117.928C97.5981 118.247 97.3721 118.639 97.2126 119.104C97.0531 119.57 96.9733 120.095 96.9733 120.68ZM105.488 127.406H104.424C104.265 127.406 104.123 127.384 103.999 127.34C103.875 127.295 103.762 127.218 103.66 127.107L101.991 125.286C101.486 125.454 100.939 125.538 100.35 125.538C99.6497 125.538 99.0116 125.421 98.4356 125.186C97.8595 124.947 97.3654 124.612 96.9534 124.182C96.5413 123.753 96.2222 123.241 95.9962 122.647C95.7703 122.049 95.6573 121.393 95.6573 120.68C95.6573 119.966 95.7703 119.313 95.9962 118.719C96.2222 118.121 96.5413 117.607 96.9534 117.177C97.3654 116.743 97.8595 116.406 98.4356 116.167C99.0116 115.927 99.6497 115.808 100.35 115.808C101.05 115.808 101.688 115.927 102.264 116.167C102.844 116.406 103.341 116.743 103.753 117.177C104.165 117.607 104.484 118.121 104.71 118.719C104.936 119.313 105.049 119.966 105.049 120.68C105.049 121.127 105.002 121.553 104.909 121.956C104.821 122.359 104.69 122.736 104.517 123.086C104.344 123.431 104.134 123.746 103.886 124.03C103.638 124.313 103.358 124.559 103.048 124.767L105.488 127.406ZM110.563 124.415C110.957 124.415 111.309 124.349 111.62 124.216C111.93 124.083 112.191 123.897 112.404 123.657C112.621 123.418 112.785 123.132 112.896 122.8C113.011 122.468 113.068 122.102 113.068 121.703V115.914H114.351V121.703C114.351 122.253 114.263 122.762 114.085 123.232C113.913 123.702 113.662 124.109 113.334 124.455C113.011 124.796 112.614 125.064 112.145 125.259C111.675 125.454 111.148 125.552 110.563 125.552C109.978 125.552 109.451 125.454 108.981 125.259C108.511 125.064 108.112 124.796 107.784 124.455C107.457 124.109 107.204 123.702 107.027 123.232C106.854 122.762 106.767 122.253 106.767 121.703V115.914H108.05V121.697C108.05 122.095 108.106 122.461 108.216 122.793C108.332 123.126 108.496 123.411 108.708 123.651C108.925 123.89 109.189 124.078 109.499 124.216C109.814 124.349 110.168 124.415 110.563 124.415ZM122.538 124.388L122.531 125.439H116.662V115.914H122.531V116.964H117.952V120.128H121.661V121.138H117.952V124.388H122.538ZM131.079 124.415C131.447 124.415 131.764 124.373 132.029 124.289C132.295 124.205 132.512 124.087 132.681 123.936C132.854 123.781 132.98 123.6 133.06 123.391C133.139 123.179 133.179 122.946 133.179 122.694C133.179 122.202 133.004 121.814 132.654 121.53C132.304 121.242 131.779 121.098 131.079 121.098H129.018V124.415H131.079ZM129.018 116.931V120.181H130.72C131.083 120.181 131.398 120.141 131.664 120.061C131.934 119.982 132.156 119.871 132.329 119.729C132.506 119.587 132.636 119.417 132.721 119.217C132.805 119.014 132.847 118.792 132.847 118.553C132.847 117.99 132.679 117.58 132.342 117.323C132.005 117.062 131.482 116.931 130.773 116.931H129.018ZM130.773 115.914C131.358 115.914 131.861 115.972 132.282 116.087C132.707 116.202 133.055 116.366 133.326 116.579C133.6 116.791 133.802 117.053 133.93 117.363C134.059 117.669 134.123 118.014 134.123 118.4C134.123 118.635 134.085 118.861 134.01 119.078C133.939 119.29 133.831 119.49 133.684 119.676C133.538 119.862 133.352 120.03 133.126 120.181C132.905 120.327 132.643 120.447 132.342 120.54C133.042 120.673 133.567 120.923 133.917 121.291C134.272 121.654 134.449 122.133 134.449 122.727C134.449 123.13 134.373 123.498 134.223 123.83C134.077 124.162 133.859 124.448 133.571 124.688C133.288 124.927 132.938 125.113 132.521 125.246C132.105 125.374 131.631 125.439 131.099 125.439H127.736V115.914H130.773ZM140.005 124.415C140.4 124.415 140.752 124.349 141.062 124.216C141.372 124.083 141.634 123.897 141.846 123.657C142.063 123.418 142.227 123.132 142.338 122.8C142.453 122.468 142.511 122.102 142.511 121.703V115.914H143.794V121.703C143.794 122.253 143.705 122.762 143.528 123.232C143.355 123.702 143.105 124.109 142.777 124.455C142.453 124.796 142.057 125.064 141.587 125.259C141.117 125.454 140.59 125.552 140.005 125.552C139.42 125.552 138.893 125.454 138.423 125.259C137.954 125.064 137.555 124.796 137.227 124.455C136.899 124.109 136.646 123.702 136.469 123.232C136.296 122.762 136.21 122.253 136.21 121.703V115.914H137.493V121.697C137.493 122.095 137.548 122.461 137.659 122.793C137.774 123.126 137.938 123.411 138.151 123.651C138.368 123.89 138.632 124.078 138.942 124.216C139.256 124.349 139.611 124.415 140.005 124.415ZM148.743 120.527C149.116 120.527 149.444 120.482 149.727 120.394C150.015 120.301 150.254 120.172 150.445 120.008C150.64 119.84 150.786 119.641 150.884 119.41C150.981 119.18 151.03 118.925 151.03 118.646C151.03 118.079 150.844 117.651 150.472 117.363C150.099 117.075 149.541 116.931 148.797 116.931H147.388V120.527H148.743ZM153.144 125.439H152C151.765 125.439 151.593 125.348 151.482 125.166L149.009 121.763C148.934 121.657 148.852 121.581 148.763 121.537C148.679 121.488 148.546 121.464 148.365 121.464H147.388V125.439H146.105V115.914H148.797C149.399 115.914 149.92 115.976 150.359 116.1C150.797 116.22 151.158 116.395 151.442 116.625C151.73 116.856 151.943 117.135 152.08 117.463C152.217 117.786 152.286 118.149 152.286 118.553C152.286 118.889 152.233 119.204 152.127 119.497C152.02 119.789 151.865 120.053 151.661 120.287C151.462 120.518 151.216 120.715 150.924 120.879C150.636 121.043 150.308 121.167 149.94 121.251C150.104 121.344 150.246 121.479 150.365 121.657L153.144 125.439ZM162.085 120.859V124.515C161.606 124.86 161.094 125.12 160.549 125.292C160.009 125.461 159.415 125.545 158.768 125.545C158.002 125.545 157.31 125.428 156.694 125.193C156.078 124.953 155.551 124.621 155.112 124.196C154.678 123.766 154.344 123.252 154.109 122.654C153.874 122.055 153.757 121.397 153.757 120.68C153.757 119.953 153.87 119.29 154.096 118.692C154.326 118.094 154.652 117.582 155.073 117.157C155.494 116.727 156.005 116.395 156.608 116.16C157.211 115.925 157.884 115.808 158.629 115.808C159.005 115.808 159.355 115.836 159.679 115.894C160.002 115.947 160.301 116.027 160.576 116.133C160.851 116.235 161.106 116.362 161.34 116.512C161.575 116.658 161.795 116.825 161.998 117.011L161.633 117.596C161.575 117.684 161.5 117.742 161.407 117.768C161.318 117.791 161.219 117.768 161.108 117.702C161.001 117.64 160.88 117.565 160.742 117.476C160.605 117.387 160.436 117.303 160.237 117.223C160.042 117.139 159.809 117.068 159.539 117.011C159.273 116.953 158.956 116.924 158.589 116.924C158.053 116.924 157.567 117.013 157.133 117.19C156.699 117.363 156.329 117.613 156.023 117.941C155.717 118.265 155.482 118.659 155.319 119.124C155.155 119.585 155.073 120.104 155.073 120.68C155.073 121.278 155.157 121.814 155.325 122.288C155.498 122.758 155.742 123.159 156.056 123.491C156.375 123.819 156.761 124.069 157.213 124.242C157.665 124.415 158.172 124.501 158.735 124.501C159.178 124.501 159.57 124.453 159.911 124.355C160.257 124.253 160.594 124.114 160.922 123.936V121.843H159.439C159.355 121.843 159.287 121.818 159.233 121.77C159.185 121.721 159.16 121.661 159.16 121.59V120.859H162.085ZM169.934 124.388L169.927 125.439H164.058V115.914H169.927V116.964H165.348V120.128H169.057V121.138H165.348V124.388H169.934ZM174.369 120.527C174.742 120.527 175.069 120.482 175.353 120.394C175.641 120.301 175.88 120.172 176.071 120.008C176.266 119.84 176.412 119.641 176.51 119.41C176.607 119.18 176.656 118.925 176.656 118.646C176.656 118.079 176.47 117.651 176.097 117.363C175.725 117.075 175.167 116.931 174.422 116.931H173.013V120.527H174.369ZM178.769 125.439H177.626C177.391 125.439 177.218 125.348 177.108 125.166L174.635 121.763C174.56 121.657 174.478 121.581 174.389 121.537C174.305 121.488 174.172 121.464 173.99 121.464H173.013V125.439H171.731V115.914H174.422C175.025 115.914 175.546 115.976 175.984 116.1C176.423 116.22 176.784 116.395 177.068 116.625C177.356 116.856 177.569 117.135 177.706 117.463C177.843 117.786 177.912 118.149 177.912 118.553C177.912 118.889 177.859 119.204 177.752 119.497C177.646 119.789 177.491 120.053 177.287 120.287C177.088 120.518 176.842 120.715 176.549 120.879C176.261 121.043 175.933 121.167 175.566 121.251C175.73 121.344 175.871 121.479 175.991 121.657L178.769 125.439Z" fill="black"/>
</svg>
